,
Brought to you by  http://www.scenetime.com/signup.php
 
 Hottest scene tracker on the net !!!   
 
No fake torrents from scenebalance 
shame on those who comment fake before downloading my torrents

    seed back for speed


 



...................................NFO:.................................................
                   _..._                          _..._    
                .-'_..._''.                    .-'_..._''.  
        .--.  .' .'      '.\                 .' .'      '.\
        |__| / .'                           / .'            
    .|  .--.. '               .|           . '              
  .' |_ |  || |             .' |_     __   | |              
.'     ||  || |           .'     | .:--.'. | |              
'--.  .-'|  |. '          '--.  .-'/ |   \ |. '              
  |  |  |  | \ '.          .|  |  `" __ | | \ '.          .
  |  |  |__|  '. `._____.-'/|  |   .'.''| |  '. `._____.-'/
  |  '.'        `-.______ / |  '.'/ /   | |_   `-.______ /  
  |   /                  `  |   / \ \._,\ '/            `  
  `'-'                      `'-'   `--'  `"                

_____ _____  ____   ____  ____  __  _  _____  ____
| ()_)| () )| ===| (_ (_`| ===||  \| ||_   _|(_ (_`
|_|   |_|\_\|____|.__)__)|____||_|\__|  |_| .__)__)



Hitcher 2 2003 DVDRip TiCTaC

 
http://www.imdb.com/title/tt0299988/




After being discharged from the local police force, Jim Halsey (C. Thomas Howell) travels to Texas with his girlfriend Maggie (Kari Wuhrer) to face down his demons and visit an old friend. Along the way, however, Jim & Maggie picks up a demented hitchhiker who has diabolical plans for the duo.



    4.2/10  





Cast

Jake Busey 	Jake Busey 	... 	
Jack
Kari Wuhrer 	Kari Wuhrer 	... 	
Maggie
C. Thomas Howell 	C. Thomas Howell 	... 	
Jim Halsey
Shaun Johnston 	Shaun Johnston 	... 	
Sheriff Castillo
Marty Antonini 	Marty Antonini 	... 	
Semi-Truck Driver
Darcy Dunlop 	Darcy Dunlop 	... 	
Bonnie Esteridge
Duncan Fraser 	Duncan Fraser 	... 	
Buick Man
Mackenzie Gray 	Mackenzie Gray 	... 	
Lieutenant
Stephen Hair 	Stephen Hair 	... 	
Captain Esteridge
Terry King 	Terry King 	... 	
Rancher
Doug MacLeod 	Doug MacLeod 	... 	
Sheriff Walters (as Douglas MacLeod)
Austen Meadows 	Austen Meadows 	... 	
Buick Boy
Janne Mortil 	Janne Mortil 	... 	
Sergeant Kibble
Valerie Planche 	Valerie Planche 	... 	
Cashier



Genres:
Horror | Thriller

Country:
USA
Language:
English
Release Date:
15 July 2003 (USA)

Runtime:
93 min
Color

General
Complete name                    : G:\Hitcher 2 2003 DVDRip TiCTaC\Hitcher 2 2003 DVDRip TiCTaC.avi
Format                           : AVI
Format/Info                      : Audio Video Interleave
File size                        : 1.09 GiB
Duration                         : 1h 31mn
Overall bit rate                 : 1 705 Kbps
Writing application              : Lavf52.13.0
Writing library                  : VirtualDub build 32842/release

Video
ID                               : 0
Format                           : MPEG-4 Visual
Format profile                   : Simple@L1
Format settings, BVOP            : No
Format settings, QPel            : No
Format settings, GMC             : No warppoints
Format settings, Matrix          : Default (H.263)
Codec ID                         : XVID
Codec ID/Hint                    : XviD
Duration                         : 1h 31mn
Bit rate                         : 1 500 Kbps
Width                            : 720 pixels
Height                           : 432 pixels
Display aspect ratio             : 16:9
Frame rate                       : 25.000 fps
Resolution                       : 8 bits
Colorimetry                      : 4:2:0
Scan type                        : Progressive
Bits/(Pixel*Frame)               : 0.193
Stream size                      : 982 MiB (88%)
Writing library                  : Lavc51.54.0

Audio
ID                               : 1
Format                           : MPEG Audio
Format version                   : Version 1
Format profile                   : Layer 3
Mode                             : Joint stereo
Format_Settings_ModeExtension    : MS Stereo
Codec ID                         : 55
Codec ID/Hint                    : MP3
Duration                         : 1h 31mn
Bit rate mode                    : Constant
Bit rate                         : 192 Kbps
Channel(s)                       : 2 channels
Sampling rate                    : 44.1 KHz
Stream size                      : 126 MiB (11%)
Alignment                        : Aligned on interleaves
Interleave, duration             : 26 ms (0.65 video frame)
Interleave, preload duration     : 522 ms
Writing library                  : LAME3.98 (beta)